<svg width="69" height="64" viewBox="0 0 69 64" fill="none" xmlns="http://www.w3.org/2000/svg">
<rect opacity="0.5" x="14.5674" y="18.981" width="52.0376" height="32.5235" rx="2" transform="rotate(15 14.5674 18.981)" fill="url(#paint0_linear)"/>
<path d="M1.00257 20.6486C0.810764 19.5608 1.5371 18.5235 2.62489 18.3317L42.1943 11.3545C43.0929 11.1961 43.9848 11.6659 44.3624 12.4966L47.4671 19.3275C47.7916 20.0416 48.5036 20.5 49.2879 20.5L52.7675 20.5C53.7619 20.5 54.6052 21.2306 54.747 22.2148L57.2736 39.7538C57.4276 40.8229 56.705 41.8211 55.6413 42.0086L8.27253 50.361C7.18474 50.5528 6.14742 49.8265 5.95562 48.7387L1.00257 20.6486Z" fill="url(#paint1_linear)"/>
<path fill-rule="evenodd" clip-rule="evenodd" d="M48.0416 9.03711H7.52295C6.41838 9.03711 5.52295 9.93254 5.52295 11.0371V39.5606C5.52295 40.6651 6.41838 41.5606 7.52295 41.5606H55.5605C56.6651 41.5606 57.5605 40.6651 57.5605 39.5606V20.9067C52.1656 20.2015 48 15.5872 48 10C48 9.67556 48.014 9.35441 48.0416 9.03711Z" fill="#EBECF0"/>
<rect x="8.77515" y="18.7939" width="13.0094" height="19.5141" rx="3" fill="#C1C7D0"/>
<rect x="25.0366" y="18.7939" width="13.0094" height="12.1963" rx="3" fill="#C1C7D0"/>
<rect x="41.2988" y="18.7939" width="13.0094" height="17.0748" rx="3" fill="#C1C7D0"/>
<rect x="8.77515" y="12.2893" width="29.2756" height="3.25285" rx="1.62642" fill="#C1C7D0"/>
<circle cx="58.7806" cy="10.2571" r="8.53741" fill="#B7DDB0"/>
<rect width="19.5141" height="19.5141" transform="translate(49.1865 0.5)" fill="white" fill-opacity="0.01"/>
<path fill-rule="evenodd" clip-rule="evenodd" d="M59.7569 9.44393V6.19321C59.7569 5.97757 59.6712 5.77076 59.5187 5.61827C59.3662 5.46579 59.1594 5.38013 58.9438 5.38013C58.7281 5.38013 58.5213 5.46579 58.3688 5.61827C58.2164 5.77076 58.1307 5.97757 58.1307 6.19321V9.44393H54.88C54.6643 9.44393 54.4575 9.5296 54.305 9.68208C54.1526 9.83457 54.0669 10.0414 54.0669 10.257C54.0669 10.4727 54.1526 10.6795 54.305 10.832C54.4575 10.9844 54.6643 11.0701 54.88 11.0701H58.1307V14.3208C58.1307 14.5365 58.2164 14.7433 58.3688 14.8958C58.5213 15.0483 58.7281 15.1339 58.9438 15.1339C59.1594 15.1339 59.3662 15.0483 59.5187 14.8958C59.6712 14.7433 59.7569 14.5365 59.7569 14.3208V11.0701H63.0076C63.2232 11.0701 63.4301 10.9844 63.5825 10.832C63.735 10.6795 63.8207 10.4727 63.8207 10.257C63.8207 10.0414 63.735 9.83457 63.5825 9.68208C63.4301 9.5296 63.2232 9.44393 63.0076 9.44393H59.7569Z" fill="white"/>
<defs>
<linearGradient id="paint0_linear" x1="14.5674" y1="35.2427" x2="66.6049" y2="35.2427" gradientUnits="userSpaceOnUse">
<stop stop-color="#A5ADBA"/>
<stop offset="1" stop-color="#C1C7D0"/>
</linearGradient>
<linearGradient id="paint1_linear" x1="45.9758" y1="45.7566" x2="26.2788" y2="14.1608" gradientUnits="userSpaceOnUse">
<stop stop-color="#DFE1E6"/>
<stop offset="1" stop-color="#DFE1E6"/>
</linearGradient>
</defs>
</svg>
